<svg xmlns="http://www.w3.org/2000/svg" xmlns:xlink="http://www.w3.org/1999/xlink" width="418" height="411" viewBox="0 0 418 411">
  <defs>
    <style>
      .cls-1 {
        clip-path: url(#clip-SPRK_default_preset_name_custom_4);
      }

      .cls-2 {
        fill: #989898;
      }

      .cls-3 {
        fill: #fff;
      }

      .cls-4 {
        fill: #c9c9c9;
      }

      .cls-5 {
        fill: #9b9b9b;
      }

      .cls-6 {
        fill: #e93d3a;
      }

      .cls-7 {
        fill: #912d34;
      }

      .cls-8 {
        filter: url(#Path_57);
      }

      .cls-9 {
        filter: url(#Path_56);
      }

      .cls-10 {
        filter: url(#Path_55);
      }

      .cls-11 {
        filter: url(#Path_53);
      }

      .cls-12 {
        filter: url(#Path_52);
      }

      .cls-13 {
        filter: url(#Path_49);
      }
    </style>
    <filter id="Path_49">
      <feOffset dy="3" input="SourceAlpha"/>
      <feGaussianBlur stdDeviation="3" result="blur"/>
      <feFlood flood-opacity="0.161" result="color"/>
      <feComposite operator="out" in="SourceGraphic" in2="blur"/>
      <feComposite operator="in" in="color"/>
      <feComposite operator="in" in2="SourceGraphic"/>
    </filter>
    <filter id="Path_52" x="193.829" y="83.876" width="55.754" height="141.431" filterUnits="userSpaceOnUse">
      <feOffset dy="3" input="SourceAlpha"/>
      <feGaussianBlur stdDeviation="3" result="blur-2"/>
      <feFlood flood-opacity="0.11"/>
      <feComposite operator="in" in2="blur-2"/>
      <feComposite in="SourceGraphic"/>
    </filter>
    <filter id="Path_53" x="132.115" y="66.454" width="79.714" height="158.853" filterUnits="userSpaceOnUse">
      <feOffset dy="3" input="SourceAlpha"/>
      <feGaussianBlur stdDeviation="3" result="blur-3"/>
      <feFlood flood-opacity="0.059"/>
      <feComposite operator="in" in2="blur-3"/>
      <feComposite in="SourceGraphic"/>
    </filter>
    <filter id="Path_55" x="231.68" y="74.247" width="40.604" height="132.413" filterUnits="userSpaceOnUse">
      <feOffset dy="3" input="SourceAlpha"/>
      <feGaussianBlur stdDeviation="3" result="blur-4"/>
      <feFlood flood-opacity="0.11"/>
      <feComposite operator="in" in2="blur-4"/>
      <feComposite in="SourceGraphic"/>
    </filter>
    <filter id="Path_56" x="242.649" y="52.745" width="43.236" height="133.136" filterUnits="userSpaceOnUse">
      <feOffset dy="3" input="SourceAlpha"/>
      <feGaussianBlur stdDeviation="3" result="blur-5"/>
      <feFlood flood-opacity="0.231"/>
      <feComposite operator="in" in2="blur-5"/>
      <feComposite in="SourceGraphic"/>
    </filter>
    <filter id="Path_57" x="138.948" y="95.046" width="60.453" height="76.489" filterUnits="userSpaceOnUse">
      <feOffset dy="3" input="SourceAlpha"/>
      <feGaussianBlur stdDeviation="3" result="blur-6"/>
      <feFlood flood-opacity="0.161"/>
      <feComposite operator="in" in2="blur-6"/>
      <feComposite in="SourceGraphic"/>
    </filter>
    <clipPath id="clip-SPRK_default_preset_name_custom_4">
      <rect width="418" height="411"/>
    </clipPath>
  </defs>
  <g id="SPRK_default_preset_name_custom_4" data-name="SPRK_default_preset_name_custom – 4" class="cls-1">
    <g id="Group_16" data-name="Group 16" transform="translate(-2356.202 242.386)">
      <g id="Group_14" data-name="Group 14" transform="translate(2388.108 -143.413)">
        <path id="Path_51" data-name="Path 51" class="cls-2" d="M2545.568,543.165,2721.3,445.643l-195.62-93.769-158.568,93.769Z" transform="translate(-2367.108 -260.755)"/>
        <path id="Path_44" data-name="Path 44" class="cls-3" d="M2578.259,432.487l-47.919,24.685-144.483-80.591,129.962-69.7,153.175,87.8-83.775,40.813Z" transform="translate(-2347.886 -306.881)"/>
        <path id="Path_45" data-name="Path 45" class="cls-3" d="M2530.822,517.908V422.482L2385.5,340.939V441.133Z" transform="translate(-2348.254 -271.965)"/>
        <path id="Path_46" data-name="Path 46" class="cls-4" d="M2501.489,466.193V368.9L2457.2,393.588V488.7Z" transform="translate(-2274.746 -243.297)"/>
        <path id="Path_47" data-name="Path 47" class="cls-3" d="M2479.069,368.9l10.16,3v98.381l-10.16-4.3Z" transform="translate(-2252.327 -243.297)"/>
        <path id="Path_48" data-name="Path 48" class="cls-4" d="M2484.086,489.645,2567,444.535V350.021l-82.916,41.243Z" transform="translate(-2247.183 -262.655)"/>
        <g class="cls-13" transform="matrix(1, 0, 0, 1, -31.91, -98.97)">
          <path id="Path_49-2" data-name="Path 49" class="cls-3" d="M2451.1,450.914l-34.7-18.176s-2.313-49.9,18.507-50.893S2451.1,450.914,2451.1,450.914Z" transform="translate(-2284.74 -131.07)"/>
        </g>
        <path id="Path_50" data-name="Path 50" class="cls-4" d="M2427.789,381.836a59.4,59.4,0,0,1,11.9,29.753c1.652,17.515,0,39.326,0,39.326l11.566-5.288s0-36.682-4.957-49.571S2427.789,381.836,2427.789,381.836Z" transform="translate(-2304.898 -230.038)"/>
      </g>
      <g id="Group_13" data-name="Group 13" transform="translate(2497.317 -212.768)">
        <g class="cls-12" transform="matrix(1, 0, 0, 1, -141.11, -29.62)">
          <path id="Path_52-2" data-name="Path 52" class="cls-4" d="M2274.363,432.82l37.754-17.425V309.389l-37.754,16.7Z" transform="translate(-2071.53 -219.51)"/>
        </g>
        <g class="cls-11" transform="matrix(1, 0, 0, 1, -141.11, -29.62)">
          <path id="Path_53-2" data-name="Path 53" class="cls-3" d="M2305.6,334.911l-61.714-34.124V406.063l61.714,35.576Z" transform="translate(-2102.78 -228.33)"/>
        </g>
        <path id="Path_54" data-name="Path 54" class="cls-3" d="M2243.89,322.471l84.221-42.837,51.549,29.768-24.686,13.069,10.891,7.26-59.854,27.346Z" transform="translate(-2243.89 -279.635)"/>
        <g class="cls-10" transform="matrix(1, 0, 0, 1, -141.11, -29.62)">
          <path id="Path_55-2" data-name="Path 55" class="cls-4" d="M2315.658,304.635V408.371l-22.6,10.677V314.06Z" transform="translate(-2052.37 -224.39)"/>
        </g>
        <g class="cls-9" transform="matrix(1, 0, 0, 1, -141.11, -29.62)">
          <path id="Path_56-2" data-name="Path 56" class="cls-5" d="M2323.706,294.017V402.709l-13.636,6.444V315.928l-11.6-8.592Z" transform="translate(-2046.82 -235.27)"/>
        </g>
      </g>
      <g id="Group_15" data-name="Group 15" transform="translate(2504.15 -143.413)">
        <g class="cls-8" transform="matrix(1, 0, 0, 1, -147.95, -98.97)">
          <path id="Path_57-2" data-name="Path 57" class="cls-6" d="M2103.337,390.707v18.557l16.523,7.88v15.761l-16.523-6.864v16.8l-10.677-5.106V420.2l-15.253-8.389V394.012l15.253,8.135V384.352Z" transform="translate(-1929.46 -283.31)"/>
        </g>
        <path id="Path_58" data-name="Path 58" class="cls-7" d="M2090.211,421.844l3.813-1.416V406.591l-3.813-1.779Z" transform="translate(-2064.281 -361.303)"/>
        <path id="Path_59" data-name="Path 59" class="cls-7" d="M2112.437,433.7l5.063-1.878V416.962l-16.23-8.408V390.172l-11.928-6.844-4.693,1.956,11.342,7.04V410.7l16.447,7.626Z" transform="translate(-2069.984 -383.328)"/>
      </g>
    </g>
  </g>
</svg>
