<svg xmlns="http://www.w3.org/2000/svg" xmlns:xlink="http://www.w3.org/1999/xlink" width="418" height="411" viewBox="0 0 418 411">
  <defs>
    <style>
      .cls-1 {
        clip-path: url(#clip-SPRK_default_preset_name_custom_3);
      }

      .cls-2 {
        fill: #ab5839;
      }

      .cls-3 {
        fill: url(#linear-gradient);
      }

      .cls-4 {
        fill: url(#linear-gradient-2);
      }

      .cls-12, .cls-5 {
        fill: none;
      }

      .cls-5 {
        stroke: #000;
        opacity: 0.55;
      }

      .cls-6 {
        fill: url(#linear-gradient-3);
      }

      .cls-7 {
        fill: #84ae58;
      }

      .cls-8 {
        fill: url(#linear-gradient-4);
      }

      .cls-9 {
        fill: url(#linear-gradient-5);
      }

      .cls-10 {
        fill: url(#linear-gradient-6);
      }

      .cls-11 {
        fill: url(#linear-gradient-7);
      }

      .cls-13 {
        filter: url(#Path_60-2);
      }

      .cls-14 {
        filter: url(#Path_60);
      }
    </style>
    <linearGradient id="linear-gradient" x1="0.549" y1="0.549" x2="0.354" y2="1.038" gradientUnits="objectBoundingBox">
      <stop offset="0" stop-color="#be6240"/>
      <stop offset="1" stop-color="#5f3120"/>
    </linearGradient>
    <linearGradient id="linear-gradient-2" x1="0.394" y1="0.532" x2="0.755" y2="-0.269" gradientUnits="objectBoundingBox">
      <stop offset="0" stop-color="#b5874a"/>
      <stop offset="1" stop-color="#744e1b" stop-opacity="0.929"/>
    </linearGradient>
    <filter id="Path_60" x="139.596" y="125.283" width="258.971" height="154.138" filterUnits="userSpaceOnUse">
      <feOffset dy="3" input="SourceAlpha"/>
      <feGaussianBlur stdDeviation="3" result="blur"/>
      <feFlood flood-opacity="0.329"/>
      <feComposite operator="in" in2="blur"/>
      <feComposite in="SourceGraphic"/>
    </filter>
    <linearGradient id="linear-gradient-3" x1="0.741" x2="0.365" y2="1.052" gradientUnits="objectBoundingBox">
      <stop offset="0" stop-color="#a7dc4b"/>
      <stop offset="0.762" stop-color="#818e6a"/>
      <stop offset="1" stop-color="#54623b"/>
    </linearGradient>
    <linearGradient id="linear-gradient-4" x1="0.773" y1="0.257" x2="-0.155" y2="1.54" gradientUnits="objectBoundingBox">
      <stop offset="0" stop-color="#516509"/>
      <stop offset="0.473" stop-color="#627033"/>
      <stop offset="1" stop-color="#101402"/>
    </linearGradient>
    <linearGradient id="linear-gradient-5" x1="0.5" y1="0.305" x2="1" y2="1.138" gradientUnits="objectBoundingBox">
      <stop offset="0" stop-color="#9cc753"/>
      <stop offset="0.372" stop-color="#677a4d"/>
      <stop offset="1" stop-color="#1f390c"/>
    </linearGradient>
    <linearGradient id="linear-gradient-6" x1="0.595" y1="0.246" x2="0.5" y2="1" gradientUnits="objectBoundingBox">
      <stop offset="0" stop-color="#4a6b0e"/>
      <stop offset="1" stop-color="#253607"/>
    </linearGradient>
    <linearGradient id="linear-gradient-7" x1="-0.394" y1="0.434" x2="1.252" y2="0.434" gradientUnits="objectBoundingBox">
      <stop offset="0" stop-color="#e8c9af"/>
      <stop offset="0.671" stop-color="#8e613c"/>
      <stop offset="1" stop-color="#5a3e26"/>
    </linearGradient>
    <filter id="Path_60-2" x="18.789" y="166.283" width="258.971" height="154.138" filterUnits="userSpaceOnUse">
      <feOffset dy="3" input="SourceAlpha"/>
      <feGaussianBlur stdDeviation="3" result="blur-2"/>
      <feFlood flood-opacity="0.329"/>
      <feComposite operator="in" in2="blur-2"/>
      <feComposite in="SourceGraphic"/>
    </filter>
    <clipPath id="clip-SPRK_default_preset_name_custom_3">
      <rect width="418" height="411"/>
    </clipPath>
  </defs>
  <g id="SPRK_default_preset_name_custom_3" data-name="SPRK_default_preset_name_custom – 3" class="cls-1">
    <g id="Group_21" data-name="Group 21" transform="translate(-2452.671 -420.334)">
      <path id="Path_71" data-name="Path 71" class="cls-2" d="M2773.232,698.82s7.425,1.859,22.911-9.172c9.927-7.071,22.751-10.395,34.154-16.759s8.909-4.879,11.455-8.7,0-15.274,0-15.274l-68.519,34.154Z"/>
      <path id="Path_61" data-name="Path 61" class="cls-3" d="M2595.231,448.492c2.51,5.378,160.97,101.816,169.574,98.231s0-15.416,0-15.416L2595.231,429.491S2592.721,443.114,2595.231,448.492Z" transform="translate(9 152)"/>
      <g class="cls-14" transform="matrix(1, 0, 0, 1, 2452.67, 420.33)">
        <path id="Path_60-3" data-name="Path 60" class="cls-4" d="M2594.363,436.231c6.513,6.059,16.075,2.163,30.162,10.948s11.762,15.721,26.185,24.193,23.454,5.082,35.546,14.84,16.759,20.153,38.609,28.85,36.275,26.729,54.094,18.668,26.963-8.973,52.3-32.064c15.178-13.831-60.5-52.767-106.4-77.911s-55.422-26.171-77.184-22.665-49.076,20.6-49.076,20.6S2587.849,430.172,2594.363,436.231Z" transform="translate(-2443.67 -268.33)"/>
      </g>
      <line id="Line_6" data-name="Line 6" class="cls-5" x2="7" y2="2" transform="translate(2779.5 657.5)"/>
      <line id="Line_7" data-name="Line 7" class="cls-5" y1="3.25" x2="5" transform="translate(2792.5 655.5)"/>
      <line id="Line_8" data-name="Line 8" class="cls-5" x2="7" y2="2" transform="translate(2734.654 632.5)"/>
      <line id="Line_9" data-name="Line 9" class="cls-5" y1="3.25" x2="5" transform="translate(2747.654 630.5)"/>
      <line id="Line_10" data-name="Line 10" class="cls-5" x2="7" y2="2" transform="translate(2685.654 611.271)"/>
      <line id="Line_11" data-name="Line 11" class="cls-5" y1="3.25" x2="5" transform="translate(2698.654 609.271)"/>
      <line id="Line_12" data-name="Line 12" class="cls-5" x2="7" y2="2" transform="translate(2636.654 586.271)"/>
      <g id="Group_20" data-name="Group 20" transform="translate(-121.452 81.521)">
        <path id="Path_62" data-name="Path 62" class="cls-6" d="M2767.4,479.02s5.24-7.722,15.719-21.51-2.758-27.3-2.758-27.3-11.858-.138-17.649,6.343-5.516,19.58-5.516,19.58a25.174,25.174,0,0,1,8,9.376C2767.74,471.229,2767.4,479.02,2767.4,479.02Z"/>
        <path id="Path_63" data-name="Path 63" class="cls-7" d="M2766.016,495.291l2.206-14.34s12.892-9.238,22.614-12.961,16.271-1.93,16.271-1.93-.552-16.822-14.892-11.858-23.992,25.371-23.992,25.371Z"/>
        <path id="Path_64" data-name="Path 64" class="cls-8" d="M2769.6,495.291l3.309-8.825s12.41-1.379,19.58-6.343,9.1-13.513,9.1-13.513-6-.9-14.34,2.758-19.028,11.858-19.028,11.858l-2.758,14.064Z"/>
        <path id="Path_65" data-name="Path 65" class="cls-9" d="M2757.189,457.234s-11.512-8.273-20.129-6.619-14.34,13.789-14.34,13.789,22.544,1.1,33.093,8.825,9.1,21.51,9.1,21.51,2.482-11.583,1.655-21.51S2757.189,457.234,2757.189,457.234Z"/>
        <path id="Path_66" data-name="Path 66" class="cls-10" d="M2728.511,464.955s11.307,5.791,17.925,12.134,11.307,3.309,11.307,3.309l7.446,13.237s-.207-12.961-9.376-20.132S2728.511,464.955,2728.511,464.955Z"/>
        <path id="Path_67" data-name="Path 67" class="cls-11" d="M2761.384,491.047s.377,4.77,5.146,4.644a6.8,6.8,0,0,0,6.151-4.644V503.6s-.377,2.887-5.523,3.138-5.774-3.138-5.774-3.138Z"/>
        <path id="Path_68" data-name="Path 68" class="cls-12" d="M0,41S.472,24.262,2.972,14.012,10,0,10,0" transform="translate(2767.5 435.5)"/>
        <path id="Path_69" data-name="Path 69" class="cls-12" d="M0,15S7.388,5.187,13.638,1.437,25,0,25,0" transform="translate(2768.5 462.5)"/>
        <path id="Path_70" data-name="Path 70" class="cls-12" d="M30,26S26.773,12.119,19.273,5.619,0,0,0,0" transform="translate(2735.5 461.5)"/>
      </g>
      <g id="Group_19" data-name="Group 19" transform="translate(-72.452 106.521)">
        <path id="Path_62-2" data-name="Path 62" class="cls-6" d="M2767.4,479.02s5.24-7.722,15.719-21.51-2.758-27.3-2.758-27.3-11.858-.138-17.649,6.343-5.516,19.58-5.516,19.58a25.174,25.174,0,0,1,8,9.376C2767.74,471.229,2767.4,479.02,2767.4,479.02Z"/>
        <path id="Path_63-2" data-name="Path 63" class="cls-7" d="M2766.016,495.291l2.206-14.34s12.892-9.238,22.614-12.961,16.271-1.93,16.271-1.93-.552-16.822-14.892-11.858-23.992,25.371-23.992,25.371Z"/>
        <path id="Path_64-2" data-name="Path 64" class="cls-8" d="M2769.6,495.291l3.309-8.825s12.41-1.379,19.58-6.343,9.1-13.513,9.1-13.513-6-.9-14.34,2.758-19.028,11.858-19.028,11.858l-2.758,14.064Z"/>
        <path id="Path_65-2" data-name="Path 65" class="cls-9" d="M2757.189,457.234s-11.512-8.273-20.129-6.619-14.34,13.789-14.34,13.789,22.544,1.1,33.093,8.825,9.1,21.51,9.1,21.51,2.482-11.583,1.655-21.51S2757.189,457.234,2757.189,457.234Z"/>
        <path id="Path_66-2" data-name="Path 66" class="cls-10" d="M2728.511,464.955s11.307,5.791,17.925,12.134,11.307,3.309,11.307,3.309l7.446,13.237s-.207-12.961-9.376-20.132S2728.511,464.955,2728.511,464.955Z"/>
        <path id="Path_67-2" data-name="Path 67" class="cls-11" d="M2761.384,491.047s.377,4.77,5.146,4.644a6.8,6.8,0,0,0,6.151-4.644V503.6s-.377,2.887-5.523,3.138-5.774-3.138-5.774-3.138Z"/>
        <path id="Path_68-2" data-name="Path 68" class="cls-12" d="M0,41S.472,24.262,2.972,14.012,10,0,10,0" transform="translate(2767.5 435.5)"/>
        <path id="Path_69-2" data-name="Path 69" class="cls-12" d="M0,15S7.388,5.187,13.638,1.437,25,0,25,0" transform="translate(2768.5 462.5)"/>
        <path id="Path_70-2" data-name="Path 70" class="cls-12" d="M30,26S26.773,12.119,19.273,5.619,0,0,0,0" transform="translate(2735.5 461.5)"/>
      </g>
      <g id="Group_18" data-name="Group 18" transform="translate(-23.452 128.521)">
        <path id="Path_62-3" data-name="Path 62" class="cls-6" d="M2767.4,479.02s5.24-7.722,15.719-21.51-2.758-27.3-2.758-27.3-11.858-.138-17.649,6.343-5.516,19.58-5.516,19.58a25.174,25.174,0,0,1,8,9.376C2767.74,471.229,2767.4,479.02,2767.4,479.02Z"/>
        <path id="Path_63-3" data-name="Path 63" class="cls-7" d="M2766.016,495.291l2.206-14.34s12.892-9.238,22.614-12.961,16.271-1.93,16.271-1.93-.552-16.822-14.892-11.858-23.992,25.371-23.992,25.371Z"/>
        <path id="Path_64-3" data-name="Path 64" class="cls-8" d="M2769.6,495.291l3.309-8.825s12.41-1.379,19.58-6.343,9.1-13.513,9.1-13.513-6-.9-14.34,2.758-19.028,11.858-19.028,11.858l-2.758,14.064Z"/>
        <path id="Path_65-3" data-name="Path 65" class="cls-9" d="M2757.189,457.234s-11.512-8.273-20.129-6.619-14.34,13.789-14.34,13.789,22.544,1.1,33.093,8.825,9.1,21.51,9.1,21.51,2.482-11.583,1.655-21.51S2757.189,457.234,2757.189,457.234Z"/>
        <path id="Path_66-3" data-name="Path 66" class="cls-10" d="M2728.511,464.955s11.307,5.791,17.925,12.134,11.307,3.309,11.307,3.309l7.446,13.237s-.207-12.961-9.376-20.132S2728.511,464.955,2728.511,464.955Z"/>
        <path id="Path_67-3" data-name="Path 67" class="cls-11" d="M2761.384,491.047s.377,4.77,5.146,4.644a6.8,6.8,0,0,0,6.151-4.644V503.6s-.377,2.887-5.523,3.138-5.774-3.138-5.774-3.138Z"/>
        <path id="Path_68-3" data-name="Path 68" class="cls-12" d="M0,41S.472,24.262,2.972,14.012,10,0,10,0" transform="translate(2767.5 435.5)"/>
        <path id="Path_69-3" data-name="Path 69" class="cls-12" d="M0,15S7.388,5.187,13.638,1.437,25,0,25,0" transform="translate(2768.5 462.5)"/>
        <path id="Path_70-3" data-name="Path 70" class="cls-12" d="M30,26S26.773,12.119,19.273,5.619,0,0,0,0" transform="translate(2735.5 461.5)"/>
      </g>
      <g id="Group_17" data-name="Group 17" transform="translate(21.994 153)">
        <path id="Path_62-4" data-name="Path 62" class="cls-6" d="M2767.4,479.02s5.24-7.722,15.719-21.51-2.758-27.3-2.758-27.3-11.858-.138-17.649,6.343-5.516,19.58-5.516,19.58a25.174,25.174,0,0,1,8,9.376C2767.74,471.229,2767.4,479.02,2767.4,479.02Z"/>
        <path id="Path_63-4" data-name="Path 63" class="cls-7" d="M2766.016,495.291l2.206-14.34s12.892-9.238,22.614-12.961,16.271-1.93,16.271-1.93-.552-16.822-14.892-11.858-23.992,25.371-23.992,25.371Z"/>
        <path id="Path_64-4" data-name="Path 64" class="cls-8" d="M2769.6,495.291l3.309-8.825s12.41-1.379,19.58-6.343,9.1-13.513,9.1-13.513-6-.9-14.34,2.758-19.028,11.858-19.028,11.858l-2.758,14.064Z"/>
        <path id="Path_65-4" data-name="Path 65" class="cls-9" d="M2757.189,457.234s-11.512-8.273-20.129-6.619-14.34,13.789-14.34,13.789,22.544,1.1,33.093,8.825,9.1,21.51,9.1,21.51,2.482-11.583,1.655-21.51S2757.189,457.234,2757.189,457.234Z"/>
        <path id="Path_66-4" data-name="Path 66" class="cls-10" d="M2728.511,464.955s11.307,5.791,17.925,12.134,11.307,3.309,11.307,3.309l7.446,13.237s-.207-12.961-9.376-20.132S2728.511,464.955,2728.511,464.955Z"/>
        <path id="Path_67-4" data-name="Path 67" class="cls-11" d="M2761.384,491.047s.377,4.77,5.146,4.644a6.8,6.8,0,0,0,6.151-4.644V503.6s-.377,2.887-5.523,3.138-5.774-3.138-5.774-3.138Z"/>
        <path id="Path_68-4" data-name="Path 68" class="cls-12" d="M0,41S.472,24.262,2.972,14.012,10,0,10,0" transform="translate(2767.5 435.5)"/>
        <path id="Path_69-4" data-name="Path 69" class="cls-12" d="M0,15S7.388,5.187,13.638,1.437,25,0,25,0" transform="translate(2768.5 462.5)"/>
        <path id="Path_70-4" data-name="Path 70" class="cls-12" d="M30,26S26.773,12.119,19.273,5.619,0,0,0,0" transform="translate(2735.5 461.5)"/>
      </g>
      <line id="Line_13" data-name="Line 13" class="cls-5" y1="3.25" x2="5" transform="translate(2649.654 584.271)"/>
    </g>
    <g id="Group_22" data-name="Group 22" transform="translate(-2573.479 -379.334)">
      <path id="Path_71-2" data-name="Path 71" class="cls-2" d="M2773.232,698.82s7.425,1.859,22.911-9.172c9.927-7.071,22.751-10.395,34.154-16.759s8.909-4.879,11.455-8.7,0-15.274,0-15.274l-68.519,34.154Z"/>
      <path id="Path_61-2" data-name="Path 61" class="cls-3" d="M2595.231,448.492c2.51,5.378,160.97,101.816,169.574,98.231s0-15.416,0-15.416L2595.231,429.491S2592.721,443.114,2595.231,448.492Z" transform="translate(9 152)"/>
      <g class="cls-13" transform="matrix(1, 0, 0, 1, 2573.48, 379.33)">
        <path id="Path_60-4" data-name="Path 60" class="cls-4" d="M2594.363,436.231c6.513,6.059,16.075,2.163,30.162,10.948s11.762,15.721,26.185,24.193,23.454,5.082,35.546,14.84,16.759,20.153,38.609,28.85,36.275,26.729,54.094,18.668,26.963-8.973,52.3-32.064c15.178-13.831-60.5-52.767-106.4-77.911s-55.422-26.171-77.184-22.665-49.076,20.6-49.076,20.6S2587.849,430.172,2594.363,436.231Z" transform="translate(-2564.48 -227.33)"/>
      </g>
      <line id="Line_6-2" data-name="Line 6" class="cls-5" x2="7" y2="2" transform="translate(2779.5 657.5)"/>
      <line id="Line_7-2" data-name="Line 7" class="cls-5" y1="3.25" x2="5" transform="translate(2792.5 655.5)"/>
      <line id="Line_8-2" data-name="Line 8" class="cls-5" x2="7" y2="2" transform="translate(2734.654 632.5)"/>
      <line id="Line_9-2" data-name="Line 9" class="cls-5" y1="3.25" x2="5" transform="translate(2747.654 630.5)"/>
      <line id="Line_10-2" data-name="Line 10" class="cls-5" x2="7" y2="2" transform="translate(2685.654 611.271)"/>
      <line id="Line_11-2" data-name="Line 11" class="cls-5" y1="3.25" x2="5" transform="translate(2698.654 609.271)"/>
      <line id="Line_12-2" data-name="Line 12" class="cls-5" x2="7" y2="2" transform="translate(2636.654 586.271)"/>
      <g id="Group_20-2" data-name="Group 20" transform="translate(-121.452 81.521)">
        <path id="Path_62-5" data-name="Path 62" class="cls-6" d="M2767.4,479.02s5.24-7.722,15.719-21.51-2.758-27.3-2.758-27.3-11.858-.138-17.649,6.343-5.516,19.58-5.516,19.58a25.174,25.174,0,0,1,8,9.376C2767.74,471.229,2767.4,479.02,2767.4,479.02Z"/>
        <path id="Path_63-5" data-name="Path 63" class="cls-7" d="M2766.016,495.291l2.206-14.34s12.892-9.238,22.614-12.961,16.271-1.93,16.271-1.93-.552-16.822-14.892-11.858-23.992,25.371-23.992,25.371Z"/>
        <path id="Path_64-5" data-name="Path 64" class="cls-8" d="M2769.6,495.291l3.309-8.825s12.41-1.379,19.58-6.343,9.1-13.513,9.1-13.513-6-.9-14.34,2.758-19.028,11.858-19.028,11.858l-2.758,14.064Z"/>
        <path id="Path_65-5" data-name="Path 65" class="cls-9" d="M2757.189,457.234s-11.512-8.273-20.129-6.619-14.34,13.789-14.34,13.789,22.544,1.1,33.093,8.825,9.1,21.51,9.1,21.51,2.482-11.583,1.655-21.51S2757.189,457.234,2757.189,457.234Z"/>
        <path id="Path_66-5" data-name="Path 66" class="cls-10" d="M2728.511,464.955s11.307,5.791,17.925,12.134,11.307,3.309,11.307,3.309l7.446,13.237s-.207-12.961-9.376-20.132S2728.511,464.955,2728.511,464.955Z"/>
        <path id="Path_67-5" data-name="Path 67" class="cls-11" d="M2761.384,491.047s.377,4.77,5.146,4.644a6.8,6.8,0,0,0,6.151-4.644V503.6s-.377,2.887-5.523,3.138-5.774-3.138-5.774-3.138Z"/>
        <path id="Path_68-5" data-name="Path 68" class="cls-12" d="M0,41S.472,24.262,2.972,14.012,10,0,10,0" transform="translate(2767.5 435.5)"/>
        <path id="Path_69-5" data-name="Path 69" class="cls-12" d="M0,15S7.388,5.187,13.638,1.437,25,0,25,0" transform="translate(2768.5 462.5)"/>
        <path id="Path_70-5" data-name="Path 70" class="cls-12" d="M30,26S26.773,12.119,19.273,5.619,0,0,0,0" transform="translate(2735.5 461.5)"/>
      </g>
      <g id="Group_19-2" data-name="Group 19" transform="translate(-72.452 106.521)">
        <path id="Path_62-6" data-name="Path 62" class="cls-6" d="M2767.4,479.02s5.24-7.722,15.719-21.51-2.758-27.3-2.758-27.3-11.858-.138-17.649,6.343-5.516,19.58-5.516,19.58a25.174,25.174,0,0,1,8,9.376C2767.74,471.229,2767.4,479.02,2767.4,479.02Z"/>
        <path id="Path_63-6" data-name="Path 63" class="cls-7" d="M2766.016,495.291l2.206-14.34s12.892-9.238,22.614-12.961,16.271-1.93,16.271-1.93-.552-16.822-14.892-11.858-23.992,25.371-23.992,25.371Z"/>
        <path id="Path_64-6" data-name="Path 64" class="cls-8" d="M2769.6,495.291l3.309-8.825s12.41-1.379,19.58-6.343,9.1-13.513,9.1-13.513-6-.9-14.34,2.758-19.028,11.858-19.028,11.858l-2.758,14.064Z"/>
        <path id="Path_65-6" data-name="Path 65" class="cls-9" d="M2757.189,457.234s-11.512-8.273-20.129-6.619-14.34,13.789-14.34,13.789,22.544,1.1,33.093,8.825,9.1,21.51,9.1,21.51,2.482-11.583,1.655-21.51S2757.189,457.234,2757.189,457.234Z"/>
        <path id="Path_66-6" data-name="Path 66" class="cls-10" d="M2728.511,464.955s11.307,5.791,17.925,12.134,11.307,3.309,11.307,3.309l7.446,13.237s-.207-12.961-9.376-20.132S2728.511,464.955,2728.511,464.955Z"/>
        <path id="Path_67-6" data-name="Path 67" class="cls-11" d="M2761.384,491.047s.377,4.77,5.146,4.644a6.8,6.8,0,0,0,6.151-4.644V503.6s-.377,2.887-5.523,3.138-5.774-3.138-5.774-3.138Z"/>
        <path id="Path_68-6" data-name="Path 68" class="cls-12" d="M0,41S.472,24.262,2.972,14.012,10,0,10,0" transform="translate(2767.5 435.5)"/>
        <path id="Path_69-6" data-name="Path 69" class="cls-12" d="M0,15S7.388,5.187,13.638,1.437,25,0,25,0" transform="translate(2768.5 462.5)"/>
        <path id="Path_70-6" data-name="Path 70" class="cls-12" d="M30,26S26.773,12.119,19.273,5.619,0,0,0,0" transform="translate(2735.5 461.5)"/>
      </g>
      <g id="Group_18-2" data-name="Group 18" transform="translate(-23.452 128.521)">
        <path id="Path_62-7" data-name="Path 62" class="cls-6" d="M2767.4,479.02s5.24-7.722,15.719-21.51-2.758-27.3-2.758-27.3-11.858-.138-17.649,6.343-5.516,19.58-5.516,19.58a25.174,25.174,0,0,1,8,9.376C2767.74,471.229,2767.4,479.02,2767.4,479.02Z"/>
        <path id="Path_63-7" data-name="Path 63" class="cls-7" d="M2766.016,495.291l2.206-14.34s12.892-9.238,22.614-12.961,16.271-1.93,16.271-1.93-.552-16.822-14.892-11.858-23.992,25.371-23.992,25.371Z"/>
        <path id="Path_64-7" data-name="Path 64" class="cls-8" d="M2769.6,495.291l3.309-8.825s12.41-1.379,19.58-6.343,9.1-13.513,9.1-13.513-6-.9-14.34,2.758-19.028,11.858-19.028,11.858l-2.758,14.064Z"/>
        <path id="Path_65-7" data-name="Path 65" class="cls-9" d="M2757.189,457.234s-11.512-8.273-20.129-6.619-14.34,13.789-14.34,13.789,22.544,1.1,33.093,8.825,9.1,21.51,9.1,21.51,2.482-11.583,1.655-21.51S2757.189,457.234,2757.189,457.234Z"/>
        <path id="Path_66-7" data-name="Path 66" class="cls-10" d="M2728.511,464.955s11.307,5.791,17.925,12.134,11.307,3.309,11.307,3.309l7.446,13.237s-.207-12.961-9.376-20.132S2728.511,464.955,2728.511,464.955Z"/>
        <path id="Path_67-7" data-name="Path 67" class="cls-11" d="M2761.384,491.047s.377,4.77,5.146,4.644a6.8,6.8,0,0,0,6.151-4.644V503.6s-.377,2.887-5.523,3.138-5.774-3.138-5.774-3.138Z"/>
        <path id="Path_68-7" data-name="Path 68" class="cls-12" d="M0,41S.472,24.262,2.972,14.012,10,0,10,0" transform="translate(2767.5 435.5)"/>
        <path id="Path_69-7" data-name="Path 69" class="cls-12" d="M0,15S7.388,5.187,13.638,1.437,25,0,25,0" transform="translate(2768.5 462.5)"/>
        <path id="Path_70-7" data-name="Path 70" class="cls-12" d="M30,26S26.773,12.119,19.273,5.619,0,0,0,0" transform="translate(2735.5 461.5)"/>
      </g>
      <g id="Group_17-2" data-name="Group 17" transform="translate(21.994 153)">
        <path id="Path_62-8" data-name="Path 62" class="cls-6" d="M2767.4,479.02s5.24-7.722,15.719-21.51-2.758-27.3-2.758-27.3-11.858-.138-17.649,6.343-5.516,19.58-5.516,19.58a25.174,25.174,0,0,1,8,9.376C2767.74,471.229,2767.4,479.02,2767.4,479.02Z"/>
        <path id="Path_63-8" data-name="Path 63" class="cls-7" d="M2766.016,495.291l2.206-14.34s12.892-9.238,22.614-12.961,16.271-1.93,16.271-1.93-.552-16.822-14.892-11.858-23.992,25.371-23.992,25.371Z"/>
        <path id="Path_64-8" data-name="Path 64" class="cls-8" d="M2769.6,495.291l3.309-8.825s12.41-1.379,19.58-6.343,9.1-13.513,9.1-13.513-6-.9-14.34,2.758-19.028,11.858-19.028,11.858l-2.758,14.064Z"/>
        <path id="Path_65-8" data-name="Path 65" class="cls-9" d="M2757.189,457.234s-11.512-8.273-20.129-6.619-14.34,13.789-14.34,13.789,22.544,1.1,33.093,8.825,9.1,21.51,9.1,21.51,2.482-11.583,1.655-21.51S2757.189,457.234,2757.189,457.234Z"/>
        <path id="Path_66-8" data-name="Path 66" class="cls-10" d="M2728.511,464.955s11.307,5.791,17.925,12.134,11.307,3.309,11.307,3.309l7.446,13.237s-.207-12.961-9.376-20.132S2728.511,464.955,2728.511,464.955Z"/>
        <path id="Path_67-8" data-name="Path 67" class="cls-11" d="M2761.384,491.047s.377,4.77,5.146,4.644a6.8,6.8,0,0,0,6.151-4.644V503.6s-.377,2.887-5.523,3.138-5.774-3.138-5.774-3.138Z"/>
        <path id="Path_68-8" data-name="Path 68" class="cls-12" d="M0,41S.472,24.262,2.972,14.012,10,0,10,0" transform="translate(2767.5 435.5)"/>
        <path id="Path_69-8" data-name="Path 69" class="cls-12" d="M0,15S7.388,5.187,13.638,1.437,25,0,25,0" transform="translate(2768.5 462.5)"/>
        <path id="Path_70-8" data-name="Path 70" class="cls-12" d="M30,26S26.773,12.119,19.273,5.619,0,0,0,0" transform="translate(2735.5 461.5)"/>
      </g>
      <line id="Line_13-2" data-name="Line 13" class="cls-5" y1="3.25" x2="5" transform="translate(2649.654 584.271)"/>
    </g>
  </g>
</svg>
