<svg xmlns="http://www.w3.org/2000/svg" xmlns:xlink="http://www.w3.org/1999/xlink" width="418" height="411" viewBox="0 0 418 411">
  <defs>
    <style>
      .cls-1 {
        clip-path: url(#clip-SPRK_default_preset_name_custom_1);
      }

      .cls-2 {
        fill: #4a4a4a;
      }

      .cls-2, .cls-3, .cls-4 {
        stroke: #707070;
      }

      .cls-3 {
        fill: #494949;
      }

      .cls-4 {
        fill: #21231a;
      }

      .cls-5, .cls-6 {
        fill: #fff;
      }

      .cls-7 {
        fill: #ff0;
      }

      .cls-8, .cls-9 {
        stroke: none;
      }

      .cls-9 {
        fill: #707070;
      }
    </style>
    <clipPath id="clip-SPRK_default_preset_name_custom_1">
      <rect width="418" height="411"/>
    </clipPath>
  </defs>
  <g id="SPRK_default_preset_name_custom_1" data-name="SPRK_default_preset_name_custom – 1" class="cls-1">
    <g id="Group_12" data-name="Group 12" transform="translate(-2093.78 -469.821)">
      <path id="Path_28" data-name="Path 28" class="cls-2" d="M2311,783.3l139.254-81.914v32.766L2311,816.07Z"/>
      <path id="Path_29" data-name="Path 29" class="cls-3" d="M2311,617.428l140.278,81.914L2311,784.328l-142.326-84.986Z"/>
      <path id="Path_30" data-name="Path 30" class="cls-4" d="M2168.677,733.131l141.3,83.962V785.352l-141.3-85.549Z"/>
      <g id="Path_31" data-name="Path 31" class="cls-5" transform="translate(2219.188 733.261) rotate(31)">
        <path class="cls-8" d="M 105.7669677734375 5.575807094573975 L 3.844334840774536 5.427229404449463 L 0.8837500214576721 0.5000044107437134 L 102.7171096801758 0.5000044107437134 L 105.7669677734375 5.575807094573975 Z"/>
        <path class="cls-9" d="M 1.767501831054688 0.9999938011169434 L 4.127464294433594 4.927645683288574 L 104.882438659668 5.074527263641357 L 102.4342193603516 0.9999938011169434 L 1.767501831054688 0.9999938011169434 M 0 -6.198883056640625e-06 L 103 -6.198883056640625e-06 L 106.6514892578125 6.077108383178711 L 3.561187744140625 5.926822662353516 L 0 -6.198883056640625e-06 Z"/>
      </g>
      <path id="Path_32" data-name="Path 32" class="cls-6" d="M0,0H103l3.651,6.077L3.561,5.927Z" transform="translate(2219.188 733.261) rotate(31)"/>
      <path id="Path_33" data-name="Path 33" class="cls-6" d="M0,0H103l3.651,6.077L3.561,5.927Z" transform="translate(2219.188 742.261) rotate(31)"/>
      <path id="Path_34" data-name="Path 34" class="cls-6" d="M0,0H29.848l2.286,3.8-29.906-.1Z" transform="translate(2281.806 789.261) rotate(31)"/>
      <path id="Ellipse_1" data-name="Ellipse 1" class="cls-7" d="M4.322.007a4.279,4.279,0,0,1,1.7.349,4.535,4.535,0,0,1,1.41.957A4.686,4.686,0,0,1,8.805,4.476a4.5,4.5,0,0,1-.283,1.741,4.284,4.284,0,0,1-.882,1.42,4.1,4.1,0,0,1-3.017,1.3A4.281,4.281,0,0,1,2.93,8.587a4.536,4.536,0,0,1-1.4-.957A4.686,4.686,0,0,1,.154,4.476,4.5,4.5,0,0,1,.433,2.74a4.286,4.286,0,0,1,.876-1.42A4.1,4.1,0,0,1,4.322.007Z" transform="translate(2175.027 717.024)"/>
    </g>
    <g id="Group_10" data-name="Group 10" transform="translate(-2096.976 -566.654)">
      <path id="Path_35" data-name="Path 35" class="cls-2" d="M2311,783.3l139.254-81.914v32.766L2311,816.07Z" transform="translate(-1.024 46.07)"/>
      <path id="Path_36" data-name="Path 36" class="cls-3" d="M2311,617.428l140.278,81.914L2311,784.328l-142.326-84.986Z" transform="translate(-1.024 46.07)"/>
      <path id="Path_37" data-name="Path 37" class="cls-4" d="M2168.677,733.131l141.3,83.962V785.352l-141.3-85.549Z" transform="translate(-1.024 46.07)"/>
      <g id="Path_38" data-name="Path 38" class="cls-5" transform="translate(2218.165 779.331) rotate(31)">
        <path class="cls-8" d="M 105.7669677734375 5.575807094573975 L 3.844334840774536 5.427229404449463 L 0.8837500214576721 0.5000044107437134 L 102.7171096801758 0.5000044107437134 L 105.7669677734375 5.575807094573975 Z"/>
        <path class="cls-9" d="M 1.767501831054688 0.9999938011169434 L 4.127464294433594 4.927645683288574 L 104.882438659668 5.074527263641357 L 102.4342193603516 0.9999938011169434 L 1.767501831054688 0.9999938011169434 M 0 -6.198883056640625e-06 L 103 -6.198883056640625e-06 L 106.6514892578125 6.077108383178711 L 3.561187744140625 5.926822662353516 L 0 -6.198883056640625e-06 Z"/>
      </g>
      <path id="Path_39" data-name="Path 39" class="cls-6" d="M0,0H103l3.651,6.077L3.561,5.927Z" transform="translate(2218.165 779.331) rotate(31)"/>
      <path id="Path_40" data-name="Path 40" class="cls-6" d="M0,0H103l3.651,6.077L3.561,5.927Z" transform="translate(2218.165 788.331) rotate(31)"/>
      <path id="Path_41" data-name="Path 41" class="cls-6" d="M0,0H29.848l2.286,3.8-29.906-.1Z" transform="translate(2280.782 835.331) rotate(31)"/>
      <path id="Ellipse_2" data-name="Ellipse 2" class="cls-7" d="M4.322.007a4.279,4.279,0,0,1,1.7.349,4.535,4.535,0,0,1,1.41.957A4.686,4.686,0,0,1,8.805,4.476a4.5,4.5,0,0,1-.283,1.741,4.284,4.284,0,0,1-.882,1.42,4.1,4.1,0,0,1-3.017,1.3A4.281,4.281,0,0,1,2.93,8.587a4.536,4.536,0,0,1-1.4-.957A4.686,4.686,0,0,1,.154,4.476,4.5,4.5,0,0,1,.433,2.74a4.286,4.286,0,0,1,.876-1.42A4.1,4.1,0,0,1,4.322.007Z" transform="translate(2174.003 763.094)"/>
    </g>
    <g id="Group_11" data-name="Group 11" transform="translate(-2098 -569.654)">
      <path id="Path_28-2" data-name="Path 28" class="cls-2" d="M2311,783.3l139.254-81.914v32.766L2311,816.07Z"/>
      <path id="Path_29-2" data-name="Path 29" class="cls-3" d="M2311,617.428l140.278,81.914L2311,784.328l-142.326-84.986Z"/>
      <path id="Path_30-2" data-name="Path 30" class="cls-4" d="M2168.677,733.131l141.3,83.962V785.352l-141.3-85.549Z"/>
      <g id="Path_31-2" data-name="Path 31" class="cls-5" transform="translate(2219.188 733.261) rotate(31)">
        <path class="cls-8" d="M 105.7669677734375 5.575807094573975 L 3.844334840774536 5.427229404449463 L 0.8837500214576721 0.5000044107437134 L 102.7171096801758 0.5000044107437134 L 105.7669677734375 5.575807094573975 Z"/>
        <path class="cls-9" d="M 1.767501831054688 0.9999938011169434 L 4.127464294433594 4.927645683288574 L 104.882438659668 5.074527263641357 L 102.4342193603516 0.9999938011169434 L 1.767501831054688 0.9999938011169434 M 0 -6.198883056640625e-06 L 103 -6.198883056640625e-06 L 106.6514892578125 6.077108383178711 L 3.561187744140625 5.926822662353516 L 0 -6.198883056640625e-06 Z"/>
      </g>
      <path id="Path_32-2" data-name="Path 32" class="cls-6" d="M0,0H103l3.651,6.077L3.561,5.927Z" transform="translate(2219.188 733.261) rotate(31)"/>
      <path id="Path_33-2" data-name="Path 33" class="cls-6" d="M0,0H103l3.651,6.077L3.561,5.927Z" transform="translate(2219.188 742.261) rotate(31)"/>
      <path id="Path_34-2" data-name="Path 34" class="cls-6" d="M0,0H29.848l2.286,3.8-29.906-.1Z" transform="translate(2281.806 789.261) rotate(31)"/>
      <path id="Ellipse_1-2" data-name="Ellipse 1" class="cls-7" d="M4.322.007a4.279,4.279,0,0,1,1.7.349,4.535,4.535,0,0,1,1.41.957A4.686,4.686,0,0,1,8.805,4.476a4.5,4.5,0,0,1-.283,1.741,4.284,4.284,0,0,1-.882,1.42,4.1,4.1,0,0,1-3.017,1.3A4.281,4.281,0,0,1,2.93,8.587a4.536,4.536,0,0,1-1.4-.957A4.686,4.686,0,0,1,.154,4.476,4.5,4.5,0,0,1,.433,2.74a4.286,4.286,0,0,1,.876-1.42A4.1,4.1,0,0,1,4.322.007Z" transform="translate(2175.027 717.024)"/>
    </g>
  </g>
</svg>
